<?xml version="1.0" encoding="UTF-8"?>
<svg version="1.1" xmlns="http://www.w3.org/2000/svg" width="229" height="138">
<path d="M0 0 C75.57 0 151.14 0 229 0 C229 45.54 229 91.08 229 138 C153.43 138 77.86 138 0 138 C0 92.46 0 46.92 0 0 Z " fill="#FDE086" transform="translate(0,0)"/>
<path d="M0 0 C0.85919037 -0.00029205 1.71838074 -0.00058411 2.60360718 -0.00088501 C5.42806286 0.00050225 8.25225087 0.01603494 11.07666016 0.03173828 C13.04106502 0.03547056 15.00547175 0.03831652 16.96987915 0.04031372 C22.12869446 0.04793325 27.28739635 0.06756733 32.44616699 0.08972168 C37.71490952 0.11021631 42.98367046 0.11932317 48.25244141 0.12939453 C58.58192623 0.15081481 68.91129724 0.18598328 79.24072266 0.22705078 C79.24072266 12.76705078 79.24072266 25.30705078 79.24072266 38.22705078 C66.37072266 38.22705078 53.50072266 38.22705078 40.24072266 38.22705078 C40.24072266 39.54705078 40.24072266 40.86705078 40.24072266 42.22705078 C41.12373047 42.18064453 42.00673828 42.13423828 42.91650391 42.08642578 C54.57383604 41.73582933 63.21294599 43.72388951 72.24072266 51.31689453 C79.98275163 58.71113705 84.2688946 67.01364453 84.76489258 77.74316406 C84.96940688 90.32926047 81.73162213 99.83093039 72.82666016 109.03173828 C60.06156044 119.8685752 45.09711468 119.5177149 29.32666016 119.42236328 C27.50249386 119.41862706 25.67832553 119.41578297 23.85415649 119.41378784 C19.0833774 119.40619933 14.31272261 119.3865926 9.54199219 119.36437988 C3.80160592 119.34019421 -1.93882222 119.33111768 -7.679245 119.31947327 C-16.37267522 119.30016489 -25.06583339 119.26180911 -33.75927734 119.22705078 C-33.75927734 107.01705078 -33.75927734 94.80705078 -33.75927734 82.22705078 C-20.22927734 82.22705078 -6.69927734 82.22705078 7.24072266 82.22705078 C7.24072266 80.90705078 7.24072266 79.58705078 7.24072266 78.22705078 C6.17595703 78.30826172 5.11119141 78.38947266 4.01416016 78.47314453 C-8.12221601 79.11419487 -16.3940535 76.98404537 -26.22802734 69.29736328 C-34.12327583 61.96185256 -38.86733464 52.43611385 -39.29223633 41.65380859 C-39.44043997 29.47906351 -36.8873074 20.47144084 -28.44677734 11.22705078 C-20.02590486 3.73550882 -11.19465358 -0.10045726 0 0 Z " fill="#333333" transform="translate(41.75927734375,10.77294921875)"/>
<path d="M0 0 C3.04581486 1.36113013 5.13839026 2.89330096 7.48339844 5.25634766 C8.47397247 6.24714828 8.47397247 6.24714828 9.48455811 7.25796509 C10.18574768 7.96947723 10.88693726 8.68098938 11.609375 9.4140625 C12.33618469 10.14370209 13.06299438 10.87334167 13.81182861 11.62509155 C16.12929198 13.9537388 18.4396995 16.28924826 20.75 18.625 C22.32115444 20.20618653 23.89276371 21.78692125 25.46484375 23.3671875 C29.31518653 27.2395669 33.15976117 31.11760171 37 35 C35.34221194 38.53317941 33.46145922 40.71020281 30.61328125 43.40625 C29.75798828 44.23253906 28.90269531 45.05882812 28.02148438 45.91015625 C26.20936261 47.64258124 24.39159776 49.36912197 22.56835938 51.08984375 C21.71693359 51.91613281 20.86550781 52.74242187 19.98828125 53.59375 C19.19977783 54.34333984 18.41127441 55.09292969 17.59887695 55.86523438 C15.80887403 57.81935409 15.80887403 57.81935409 15.97119141 59.97753906 C17.38587294 62.7585599 19.24566469 64.58065215 21.47265625 66.765625 C22.82133789 68.09980469 22.82133789 68.09980469 24.19726562 69.4609375 C25.14279297 70.38132812 26.08832031 71.30171875 27.0625 72.25 C28.02216973 73.19461673 28.98116229 74.13992195 29.93945312 75.0859375 C32.28638828 77.39749172 34.64003391 79.7017634 37 82 C35.66019143 84.96989969 34.17662402 87.08586748 31.89892578 89.4074707 C31.27132355 90.05106033 30.64372131 90.69464996 29.99710083 91.35774231 C29.32001068 92.04019516 28.64292053 92.72264801 27.9453125 93.42578125 C27.24735565 94.13276657 26.5493988 94.83975189 25.83029175 95.56816101 C24.35525956 97.05768135 22.87741612 98.5444223 21.39697266 100.02856445 C19.12805885 102.30942504 16.87846249 104.60826901 14.62890625 106.90820312 C13.19386009 108.35270763 11.75769951 109.79610605 10.3203125 111.23828125 C9.64727081 111.93085526 8.97422913 112.62342926 8.28079224 113.33699036 C7.64688568 113.96481918 7.01297913 114.59264801 6.35986328 115.23950195 C5.80630157 115.79813431 5.25273987 116.35676666 4.68240356 116.93232727 C3 118 3 118 0.92520142 117.78742981 C-1.8328922 116.65933739 -3.41275709 114.90475496 -5.484375 112.7734375 C-6.33773437 111.90589844 -7.19109375 111.03835937 -8.0703125 110.14453125 C-8.95460937 109.23058594 -9.83890625 108.31664063 -10.75 107.375 C-17.51728499 100.35431403 -17.51728499 100.35431403 -24.69921875 93.76953125 C-30.75980081 88.5795554 -36.38369973 82.91491796 -42.04858398 77.30151367 C-43.4020474 75.96478601 -44.76087576 74.63347075 -46.12475586 73.30737305 C-48.10699878 71.37955484 -50.07259187 69.4361041 -52.03515625 67.48828125 C-52.95676292 66.60067863 -52.95676292 66.60067863 -53.89698792 65.69514465 C-55.57836914 64.00512695 -55.57836914 64.00512695 -58 61 C-57.97106799 57.35040376 -55.72250629 55.37037432 -53.25828552 52.88502502 C-52.46419029 52.10710854 -52.46419029 52.10710854 -51.65405273 51.31347656 C-51.09795319 50.75693893 -50.54185364 50.20040131 -49.96890259 49.6269989 C-48.13082172 47.79100642 -46.28234668 45.96586561 -44.43359375 44.140625 C-43.15641614 42.86904314 -41.87989969 41.59679689 -40.60401917 40.32391357 C-37.24536118 36.97670588 -33.87779136 33.63860517 -30.50830078 30.30230713 C-27.07108069 26.89578373 -23.64234523 23.48074415 -20.21289062 20.06640625 C-13.48354791 13.36923096 -6.74476188 6.68164379 0 0 Z " fill="#343433" transform="translate(185,11)"/>
</svg>
